<?xml version="1.0" standalone="no"?>
<!DOCTYPE svg PUBLIC "-//W3C//DTD SVG 20010904//EN"
 "http://www.w3.org/TR/2001/REC-SVG-20010904/DTD/svg10.dtd">
<svg version="1.0" xmlns="http://www.w3.org/2000/svg"
 width="1000.000000pt" height="1000.000000pt" viewBox="0 0 1000.000000 1000.000000"
 preserveAspectRatio="xMidYMid meet">
<metadata>
Created by potrace 1.11, written by Peter Selinger 2001-2013
</metadata>
<g transform="translate(0.000000,1000.000000) scale(0.100000,-0.100000)"
fill="#000000" stroke="none">
<path d="M4660 9989 c-388 -26 -812 -108 -1195 -230 -449 -142 -960 -399
-1357 -681 -454 -322 -864 -732 -1186 -1186 -282 -397 -539 -908 -681 -1357
-320 -1004 -320 -2066 0 -3070 142 -449 399 -960 681 -1357 322 -454 732 -864
1186 -1186 397 -282 908 -539 1357 -681 1004 -320 2066 -320 3070 0 449 142
960 399 1357 681 454 322 864 732 1186 1186 282 397 539 908 681 1357 320
1004 320 2066 0 3070 -142 449 -399 960 -681 1357 -322 454 -732 864 -1186
1186 -397 282 -908 539 -1357 681 -603 192 -1251 272 -1875 230z m375 -2229
c155 -74 238 -245 190 -392 -38 -119 -134 -203 -267 -233 -121 -27 -233 11
-349 119 -36 33 -81 70 -99 81 -68 41 -95 115 -70 191 19 57 149 182 231 223
121 60 254 64 364 11z m2972 -330 c44 -26 73 -87 73 -151 0 -63 -23 -105 -72
-130 -47 -24 -341 -97 -601 -149 -111 -22 -213 -43 -226 -46 l-24 -5 7 -307
c9 -381 40 -1004 61 -1227 2 -27 9 -99 15 -160 6 -60 25 -234 42 -386 17 -152
28 -288 24 -302 -3 -14 -18 -40 -33 -58 -72 -85 -204 -77 -257 15 -28 48 -37
101 -71 406 -58 521 -94 1081 -111 1733 l-6 238 -27 -6 c-65 -13 -184 -24
-212 -18 -67 13 -129 114 -115 186 16 79 71 122 174 137 380 55 364 53 682
117 96 19 258 56 360 83 209 54 269 60 317 30z m-2102 -365 c50 -9 116 -20
147 -25 130 -19 168 -31 198 -61 79 -79 56 -214 -44 -260 -54 -25 -68 -24
-283 12 -101 17 -190 28 -197 26 -11 -4 -12 -17 -5 -54 24 -127 95 -274 203
-420 78 -104 106 -137 310 -364 272 -302 377 -477 441 -733 33 -132 37 -309 9
-421 -58 -238 -219 -415 -454 -497 -71 -25 -226 -35 -303 -19 -77 17 -185 72
-246 127 -150 135 -251 397 -251 652 0 97 3 113 23 142 32 49 81 74 142 74
101 -1 155 -56 155 -159 0 -87 24 -231 49 -300 42 -114 124 -201 205 -216 86
-16 210 32 276 108 62 70 84 135 88 259 9 267 -89 457 -423 819 -237 257 -367
433 -454 615 -69 146 -91 232 -98 371 -5 111 -4 119 21 175 63 137 166 190
336 172 36 -4 106 -14 155 -23z m-3538 -33 c252 -92 423 -306 502 -627 39
-161 69 -470 51 -535 -12 -45 -55 -85 -109 -101 -57 -17 -141 10 -177 56 -22
30 -28 51 -35 128 -4 50 -13 142 -18 202 -20 217 -80 372 -182 475 -83 82
-134 105 -234 105 -70 0 -87 -4 -134 -30 -174 -96 -276 -305 -325 -665 -37
-274 -41 -342 -40 -630 0 -291 7 -371 45 -570 31 -160 109 -389 187 -545 93
-189 253 -390 346 -435 184 -88 392 112 559 536 128 326 263 827 331 1229 46
274 64 445 90 891 7 113 46 164 137 179 29 5 43 15 59 40 73 118 239 196 385
181 224 -23 347 -215 411 -646 25 -166 26 -486 1 -595 -62 -270 -242 -444
-488 -472 l-67 -8 48 -165 c79 -273 141 -439 246 -659 88 -183 172 -307 281
-412 133 -129 250 -180 413 -181 100 -1 179 16 275 61 95 45 167 100 215 165
68 93 101 126 139 135 90 24 186 -31 211 -121 21 -73 -25 -154 -165 -293 -124
-124 -256 -199 -435 -247 -123 -33 -359 -33 -475 0 -315 90 -550 328 -767 777
l-58 120 6 -405 c5 -380 5 -407 -13 -440 -27 -51 -75 -75 -151 -74 -71 1 -104
19 -137 75 -19 32 -20 59 -28 544 -4 281 -10 535 -14 565 l-6 55 -12 -45 c-40
-144 -165 -469 -233 -605 -118 -237 -258 -392 -427 -471 -235 -111 -436 -78
-628 105 -126 119 -264 319 -363 526 -253 525 -316 1181 -188 1935 80 471 224
725 487 862 101 53 174 68 308 63 74 -3 113 -10 176 -33z m2498 -96 c19 -8 43
-29 54 -47 19 -31 20 -51 19 -388 -2 -660 55 -1160 203 -1784 19 -80 29 -142
26 -163 -17 -106 -151 -167 -247 -113 -50 28 -65 57 -95 185 -35 145 -93 424
-105 499 -5 33 -16 105 -25 160 -59 369 -78 645 -79 1120 -1 418 -1 420 22
462 39 74 141 105 227 69z m3726 -259 c48 -32 79 -83 79 -129 0 -24 -32 -129
-84 -271 -142 -391 -240 -693 -340 -1047 -99 -351 -106 -384 -96 -421 6 -19
10 -55 10 -82 0 -41 -5 -53 -40 -91 -33 -36 -43 -56 -60 -132 -125 -529 -246
-1259 -300 -1819 -6 -60 -15 -150 -20 -200 -6 -49 -14 -169 -20 -265 -12 -204
-19 -268 -32 -295 -21 -41 -53 -66 -104 -81 -47 -13 -56 -13 -105 3 -76 26
-99 62 -99 160 0 73 31 491 50 673 21 195 40 358 54 465 8 61 18 130 21 155 8
57 17 118 55 355 49 301 116 639 191 961 l49 211 -34 124 c-63 227 -109 436
-150 675 -41 236 -75 549 -81 754 -7 206 -4 218 54 257 45 31 141 32 189 3 54
-33 69 -69 76 -188 26 -396 108 -1007 129 -952 3 8 28 90 56 181 115 374 301
897 339 947 54 73 146 94 213 49z m-2241 -3602 c161 -19 196 -34 227 -94 45
-87 21 -178 -58 -219 -49 -26 -55 -26 -324 3 -182 19 -542 19 -723 0 -425 -45
-719 -115 -1109 -266 -83 -33 -164 -59 -180 -59 -73 1 -142 61 -156 137 -10
52 19 131 56 154 53 32 330 138 475 181 342 101 579 145 987 182 107 10 678
-3 805 -19z"/>
<path d="M4875 7460 c4 -6 11 -8 16 -5 14 9 11 15 -7 15 -8 0 -12 -5 -9 -10z"/>
<path d="M3717 6578 c-19 -15 -37 -60 -37 -94 0 -44 -28 -83 -80 -109 l-49
-25 5 -182 c16 -622 14 -585 40 -613 19 -21 32 -25 76 -25 59 0 122 25 155 61
12 13 34 51 50 84 28 60 28 60 28 275 0 192 -3 231 -28 362 -37 198 -72 278
-122 278 -11 0 -29 -6 -38 -12z"/>
</g>
</svg>
